<svg xmlns="http://www.w3.org/2000/svg" width="166" height="26" viewBox="0 0 166 26">
    <g fill="#FFF" fill-rule="evenodd">
        <path d="M.483 16.648s5.024.048 7.3.456c7.247 1.283 7.525 7.982 7.525 7.982s-1.18.066-4.294.066c-7.263 0-10.53-8.504-10.53-8.504M31.132 16.648s-5.023.048-7.3.456c-7.245 1.283-7.522 7.982-7.522 7.982s1.179.066 4.293.066c7.264 0 10.53-8.504 10.53-8.504M18.515 15.87c0 1.454-1.212 2.632-2.707 2.632-1.496 0-2.708-1.178-2.708-2.632 0-1.453 1.212-2.632 2.708-2.632 1.495 0 2.707 1.179 2.707 2.632M24.048 13.28c0 1.453-1.212 2.632-2.707 2.632-1.495 0-2.707-1.179-2.707-2.632 0-1.454 1.212-2.632 2.707-2.632 1.495 0 2.707 1.178 2.707 2.632M21.586 2.79c0 1.453-1.212 2.632-2.707 2.632-1.496 0-2.708-1.179-2.708-2.632 0-1.454 1.212-2.632 2.708-2.632 1.495 0 2.707 1.178 2.707 2.632M15.444 2.79c0 1.453-1.212 2.632-2.707 2.632-1.495 0-2.707-1.179-2.707-2.632 0-1.454 1.212-2.632 2.707-2.632 1.495 0 2.707 1.178 2.707 2.632M12.982 13.28c0 1.453-1.212 2.632-2.707 2.632-1.496 0-2.708-1.179-2.708-2.632 0-1.454 1.212-2.632 2.708-2.632 1.495 0 2.707 1.178 2.707 2.632M25.415 7.459c0 1.453-1.212 2.631-2.707 2.631C21.212 10.09 20 8.912 20 7.46c0-1.454 1.212-2.632 2.708-2.632 1.495 0 2.707 1.178 2.707 2.632M11.615 7.459c0 1.453-1.212 2.631-2.707 2.631-1.496 0-2.707-1.178-2.707-2.631 0-1.454 1.211-2.632 2.707-2.632 1.495 0 2.707 1.178 2.707 2.632M44.624 22.817c-2.938.024-8.078-.81-8.078-6.664 0-5.783 5.14-6.76 8.078-6.664V7.656h4.798v1.833c2.937-.096 8.078.88 8.078 6.664 0 5.854-5.14 6.688-8.078 6.664v2.332h-4.798v-2.332zm.343-9.997c-1.2-.023-3.623.382-3.623 3.333 0 2.95 2.423 3.355 3.623 3.332V12.82zm4.112 6.665c1.2.023 3.623-.381 3.623-3.332 0-2.951-2.423-3.356-3.623-3.333v6.665zm10.2-2.666c0-4.45 2.938-8.806 9.204-8.806 6.267 0 9.204 4.355 9.204 8.806 0 4.451-2.937 8.806-9.204 8.806-6.266 0-9.203-4.355-9.203-8.806zm13.463 0c0-3.213-2.032-4.807-4.259-4.807-2.227 0-4.26 1.594-4.26 4.807s2.033 4.807 4.26 4.807 4.26-1.594 4.26-4.807zm20.102 7.569c-1.542 1.023-3.158 1.237-4.626 1.237-5.092 0-8.764-3.475-8.764-8.806 0-5.57 4.04-8.806 8.69-8.806 1.518 0 3.256.381 4.7 1.333v4.83c-.88-.998-2.228-1.998-4.063-1.998-2.644 0-4.382 2.046-4.382 4.783 0 2.524 1.64 4.499 4.382 4.499 1.786 0 3.182-.928 4.063-1.809v4.737zm7.337-15.899h5.825l6.096 16.66h-5.14l-.956-2.88h-5.825l-.955 2.88h-5.14l6.095-16.66zm.955 10.115h3.916l-1.958-6.14-1.958 6.14zm12.637-10.115h10.281v3.998h-5.483V25.15h-4.798V8.489zm12.174 0h7.22c4.872 0 6.242 3.285 6.242 5.57 0 2.308-1.395 5.592-6.242 5.592h-2.423v5.498h-4.797V8.489zm4.797 7.497h1.37c2.131 0 2.351-1.214 2.351-1.928 0-.833-.294-1.903-2.35-1.903h-1.37v3.831zm10.283.833c0-4.45 2.938-8.806 9.205-8.806 6.266 0 9.203 4.355 9.203 8.806 0 4.451-2.937 8.806-9.203 8.806-6.267 0-9.205-4.355-9.205-8.806zm13.463 0c0-3.213-2.031-4.807-4.258-4.807-2.229 0-4.26 1.594-4.26 4.807s2.031 4.807 4.26 4.807c2.227 0 4.258-1.594 4.258-4.807zm11.24-6.52c0 1.503-1.149 2.634-2.708 2.634-1.56 0-2.709-1.131-2.709-2.633 0-1.51 1.149-2.648 2.709-2.648s2.708 1.139 2.708 2.648zm-4.97 0c0 1.27.933 2.243 2.262 2.243 1.328 0 2.26-.972 2.26-2.242 0-1.277-.932-2.256-2.26-2.256-1.329 0-2.261.979-2.261 2.256zm2.139-1.537c.344 0 1.12.058 1.12.921 0 .464-.284.762-.687.842l1.044 1.284h-.672l-.925-1.204h-.149v1.204h-.537V8.762h.806zm-.269 1.364h.202c.223 0 .649-.022.649-.443 0-.442-.433-.442-.634-.442h-.217v.885z"/>
    </g>
</svg>
